<?xml version="1.0" encoding="UTF-8"?>
<!-- Generator: Adobe Illustrator 16.0.1, SVG Export Plug-In . SVG Version: 6.00 Build 0)  -->
<!DOCTYPE svg PUBLIC "-//W3C//DTD SVG 1.1//EN" "http://www.w3.org/Graphics/SVG/1.1/DTD/svg11.dtd">
<svg version="1.1" id="Layer_1" xmlns="http://www.w3.org/2000/svg" xmlns:xlink="http://www.w3.org/1999/xlink" x="0px" y="0px" width="215.2px" height="37.848px" viewBox="0 0 215.2 37.848" enable-background="new 0 0 215.2 37.848" xml:space="preserve">
<g>
	<g>
		<path fill="#CC1417" d="M183.162,7.697c1.082,1.197,2.174,1.32,3.611,1.098c3.271-0.912,5.887-1.553,9.104-1.697    c2.541-0.047,5.738,0.26,7.645,1.035c0.811,0.396,1.219,0.977,0.902,1.664c-0.535,0.848-1.037,0.979-0.91,2.812    c-0.02,0.143-0.367,0.248-0.387-0.123c0.053-0.58,0.053-0.895-0.262-1.258c-0.75-0.756-2.617-0.963-4.051-1.262    c-4.799-0.963-10.184-0.367-14.912,0.355c-1.012,0.027-1.707-0.457-2.112-1.035c-0.377-1.01,0.631-0.758,0.225-2.031    c-0.033-0.121-0.041-0.225-0.031-0.314c-0.016-0.127,0.206-0.398,0.395-0.422C182.801,6.676,182.533,7.055,183.162,7.697    L183.162,7.697z"/>
		<path fill="#CC1417" d="M182.381,11.285c0.211,0.182,0.43,0.133,0.439,0.242c0.131,0.27-0.387,0.867-0.768,1.234    c-0.312,0.129-1.645,0.619-2.504,1.422c-2.027,1.279-4.982,0.07-7.445,0.02c-1.105,0.094-1.588,0.449-2.379,1.527    c-0.391,0.395-0.545,0.49-0.941,0.373c-0.266-0.117-0.076-0.299,0-0.402c0.227-0.25,0.68-0.35,0.629-0.803    c0-0.527-0.467-0.846,0.002-1.557c2.16-2.662,7.143-0.721,10.611-1.016c0.99-0.219,1.025-0.58,0.734-0.553    c-3.045,0.273-4.424-2.846-7.67-1.922c-2.514,0.529-6.018,3.729-7.971,0.848c-0.852-1.584,1.301-0.775,0.904-2.275    c-0.027-0.418,0.73-0.736,0.758-0.236c0.225,0.729,0.625,1.385,1.48,1.609c3.771,0.359,6.742-3.262,10.537-1.143    C180.048,9.494,181.068,10.52,182.381,11.285L182.381,11.285z"/>
		<path fill="#73797C" d="M178.808,37.582c-0.096,0.303-0.254,0.152-0.293-0.021l0.117-0.174L178.808,37.582z"/>
		<path fill="#73797C" d="M197.643,3.852c-0.26-0.26-0.391-0.328-0.531-0.42c-0.305-0.188-0.668-0.377-0.943-0.551    c-1.078-0.693-2.209-1.367-2.619-2.496c-0.033-0.463,0.484-0.492,0.756-0.174c0.525,0.58,1.078,1.203,2.008,1.432    c1.033,0.105,2.088,0.33,2.469,1.082c0.213,0.738,0.455,1.904,0.1,2.449C198.285,5.643,198.189,4.406,197.643,3.852L197.643,3.852    z"/>
		<path fill="#73797C" d="M186.23,1c0.6-0.223,1.43-0.326,2.059-0.098c1.277,0.557,1.93,2.891,3.756,1.867    c0.078-0.045,0.158-0.094,0.242-0.15c0.516-0.217,1.064,0.082,1.312,0.578c0.428,1.168,1.26,2.756,1.25,2.916    c-0.178,0.449-0.629,0.053-0.855-0.104c-0.932-0.969-1.924-1.102-3-1.711c-0.805-0.455-1.303-1.102-1.9-1.408    c-1.68-0.705-4.125-0.385-4.701-2.066c-0.014-0.303,0.1-0.426,0.305-0.48C184.979,0.365,185.436,1.135,186.23,1L186.23,1z"/>
		<path fill="#73797C" d="M201.869,3.889c0.574,0.453,1.65,0.758,1.617,1.451c-0.092,0.533-0.439,0.686-0.842,0.838    c-0.48,0.086-0.695,0.1-0.906-0.506c-0.057-0.98-0.434-1.357-0.824-1.875c-0.189-0.301-0.207-0.443,0.014-0.693    C201.447,2.758,201.414,3.639,201.869,3.889L201.869,3.889z"/>
		<path fill="#73797C" d="M214.731,13.404c0.283,0.666,0.766,2.174,0.221,2.588c-0.494,0.008,0.152-0.822-0.691-0.869    c-1.86,0.5-2.778,3.184-3.112,3.926c-1.41,3.145-1.965,4.285-1.996,8.221c0.027,0.236,0.201,0.752,0.053,0.801    c-1.004-0.127-0.775-3.674-0.598-5.064c0.762-4.043,1.541-6.592,3.734-9.658c0.25-0.273,0.703-0.576,1.181-0.572    C214.052,12.775,214.45,12.861,214.731,13.404L214.731,13.404z"/>
		<path fill="#73797C" d="M195.715,13.781c0,0,0.109,0.025,0.092,0.139c-0.018,0.109-0.092,0.086-0.092,0.086    c-1.695-0.033-3.279,0.217-4.705,0.752c-1.859,0.596-2.109,1.146-2.381,1.182c-0.764-0.209,0.51-0.758-0.129-1.414    c-0.271-0.414,0.178-0.529,0.453-0.58C190.988,13.348,193.605,13.348,195.715,13.781L195.715,13.781z"/>
		<path fill="#73797C" d="M203.436,14.871c0.164,0.314-0.465,0.174-1.133,0.426c-0.793,0.391-0.951,0.607-1.025,1.107    c-0.037,0.254,0.561-0.027,1.174,0.5c0.176,0.178,0.471,0.498,0.176,0.83c-0.426,0.223-1.121,0.779-1.406,0.299    c-0.262-0.465,0.488-0.273,0.102-0.748c-0.102-0.104-0.275-0.094-0.402-0.057c-0.781,1.709-0.461,4.148-0.916,6.08    c-0.277,0.627-1.008,1.002-1.686,1.355c-0.217-0.062-0.906-0.68-1.48-0.402c-0.543,0.494-0.984,0.348-1.436,0.221    c-0.287-0.168-0.705-0.201-0.629-0.578c0.328-0.273,0.928,0.279,1.484,0.025c0.303-0.242,0.414-0.32,0.982-0.25    c0.625,0.105,1.529,0.207,2.061-0.094c0.768-0.709,0.205-1.164,0.006-4.299c-0.037-0.197-0.439-2.82,1.215-3.844    C201.326,14.943,203.318,14.639,203.436,14.871L203.436,14.871z"/>
		<path fill="#73797C" d="M195.598,16.244c0.643,0.58-1.586-0.225-1.896,0.174c-0.053,0.4,0.855,0.752,0.127,1.104    c-0.428,0.275-1.008,0.604-1.562,0.398c-0.426-0.5,0.779-0.424,0.354-0.926c-0.678-0.555-1.406,0.248-2.012,0.5    c-0.451-0.037,0.025-0.305-0.125-0.629c-0.076-0.379-0.301-0.68,0.178-0.855C192.094,15.686,194.953,15.664,195.598,16.244    L195.598,16.244z"/>
		<path fill="#73797C" d="M181.123,16.99c0.139,0.191,0.232,0.064,0.625,0.287c0.172,0.143,0.172,0.434,0.299,0.582    c0.196,0.223,0.536,0.064,0.311,0.9c-0.258,1.342-0.245,3.154,0.068,4.408c0.064,0.262,0.227,0.596,0.1,0.719    c-0.172,0.051-0.236-0.062-0.401-0.375c-0.479-1.055-1.881-4.127-1.426-6.889C180.871,16.473,181.044,16.379,181.123,16.99    L181.123,16.99z"/>
		<path fill="#73797C" d="M203.984,18.264c0.021,0.113,0.059,1.57-0.193,3.297c-0.34,2.355-0.998,3.449-1.453,4.592    c-1.207,2.012-2.32,4.191-3.631,6.076c-0.326,0.352-0.084,0.18-0.326,0.352c-0.727,0.455-1.609,0.727-2.643,0.549    c-1.104-0.154-2.312-0.332-3.266-0.732c0,0-4.297-2.066-5.682-3.328c0,0-0.172-0.15-0.121-0.195    c0.043-0.049,0.121-0.025,0.121-0.025c2.867,1.584,6.158,3.348,9.98,2.924c2.143-0.6,2.621-2.559,3.732-3.963    c1.736-2.713,3.244-6.215,3.227-9.545C203.732,18.061,203.939,18.047,203.984,18.264L203.984,18.264z"/>
		<path fill="#73797C" d="M198.09,25.871c0.244-0.314,0.529-0.232,0.668,0.047c0,0,0.213,0.76,0.24,0.842    c0.025,0.09-0.035,0.227-0.168,0.09c-0.117-0.117-1.141-0.584-1.514,0.158c-0.094,0.006-0.092-0.021-0.166-0.061    c-0.311-0.172-0.783-0.941-1.498-0.377c-0.48,0.252-1.135,0.828-1.965,0.553c-0.209-0.109-0.336-0.236-0.174-0.33    c1.154,0.053,1.836-0.775,2.691-1.201C196.906,25.492,197.508,26.775,198.09,25.871L198.09,25.871z"/>
		<path fill="#73797C" d="M198.396,27.516c0.045,0.008,0.092,0.062,0.092,0.062c-0.074,0.779-0.479,1.307-1.258,1.559    c-1.029,0.021-1.885-0.641-2.283-1.285c0,0-0.088-0.098-0.102-0.184c-0.016-0.092,0.102-0.068,0.102-0.068    c0.977,0.355,2.436,0.779,3.316-0.021C198.264,27.578,198.348,27.512,198.396,27.516L198.396,27.516z"/>
		<path fill="#73797C" d="M207.717,30.205c0,0,0.295,0.111,0.223,0.277c-0.041,0.096-0.133,0.146-0.25,0.186    c-1.785,0.855-1.395,2.922-1.967,4.762c-0.406,1.76-2.34,2.385-2.596,4.295c-0.004,0.115-0.127,0.324-0.303,0.025    c-0.529-0.781-0.225-2.113,0.076-2.893c0.609-1.355,2.844-1.502,2.521-3.486c-0.098-1.484-0.295-2.844,0.535-3.822    c0.303-0.223,0.768-0.473,1.031,0C207.02,30.125,207.193,30.051,207.717,30.205L207.717,30.205z"/>
		<path fill="#73797C" d="M210.127,31.791c0.238,0.131-0.682,0.666-0.967,1.092c-0.422,0.643-0.512,1.18-0.871,0.963    c-0.098-0.074,0.004-0.361-0.09-0.59c-0.098-0.113-0.553-0.066-0.188-0.561C208.178,32.514,209.357,31.621,210.127,31.791    L210.127,31.791z"/>
		<path fill="#73797C" d="M209.77,34.658c0.033,0.074-0.109,0.129-0.109,0.129c-1.084,0.705-1.551,1.803-2.004,2.904    c0,0-0.064,0.141-0.16,0.154c-0.172,0.025-0.217-0.176-0.217-0.176c0.037-1.189-0.959-0.32-0.777-1.133    c0.291-0.682,1.684-2.033,3.17-1.932C209.672,34.605,209.736,34.578,209.77,34.658L209.77,34.658z"/>
		<path fill="#73797C" d="M179.75,18.725c0.049-0.207-0.107-0.432-0.285-0.119l-0.012,0.051c-0.576,0.865-1.203,1.752-2.332,2.156    c-0.768,0.305,0.207,0.727-0.531,1.4c-0.148,0.158-0.148,0.865,0.305,0.586c1.412-1,2.312-2.275,2.818-3.984L179.75,18.725    L179.75,18.725z"/>
		<path fill="#73797C" d="M178.808,37.582c0.568-1.814,0.865-3.848,1.119-5.91c1.557-0.725,2.95-2.02,3.047-3.184    c0.113-1.439-1.284-2.061-2.413-2.77c-0.051-1.404-0.195-2.637-0.516-3.846c0,0-0.025-0.154-0.131-0.18    c-0.057-0.018-0.17,0.07-0.17,0.07c-0.736,0.805-0.869,2-1.246,3.125c-0.68-0.328-1.607-0.307-2.389-0.182    c-0.301,0.152-0.605,0.453-0.352,0.809c0.4,0.881,1.48,1.355,2.613,1.406c-0.104,1.186-0.164,1.725-0.24,2.879    c-0.006,0.008-0.035,0.867,0.008,1.646c-1.334,0.65-2.721,1.277-3.098,2.686c-0.076,0.902,0.373,1.434,0.977,1.857    c0.66,0.551,0.17,1.27,0.275,1.463c0.225,0.17,0.334-0.035,0.654-0.33c0.631-1.055-0.371-1.709-0.172-2.867    c0.092-0.48,0.652-1.404,1.387-1.605c0.121,1.629,0.121,3.375,0.352,4.91L178.808,37.582z M181.484,28.207    c0.146,0.443,0.174,1.09-0.402,1.584c-0.453,0.486-0.545,0.5-0.922,0.689c0.078-0.955,0.186-2.117,0.287-3.043    C180.996,27.48,181.351,27.904,181.484,28.207L181.484,28.207z"/>
	</g>
	<g>
		<g>
			<path fill="#CC1417" d="M141.778,13.252h-3.588l-7.174,18.049h3.964l1.285-3.437h7.514l1.282,3.437h4.005L141.778,13.252z      M142.533,24.466h-5.022l2.454-6.798L142.533,24.466z"/>
		</g>
		<g>
			<path fill="#CC1417" d="M64.103,13.478c-0.792-0.189-1.85-0.226-3.059-0.226h-6.57v18.049h6.57c1.209,0,2.267-0.074,3.059-0.226     c0.831-0.152,1.51-0.38,2.114-0.681c1.397-0.643,2.493-1.661,3.286-3.021c0.791-1.398,1.171-3.098,1.207-5.099     c-0.036-2.039-0.416-3.738-1.207-5.098c-0.793-1.398-1.889-2.416-3.286-3.095C65.613,13.816,64.934,13.628,64.103,13.478z      M66.748,24.163c-0.115,0.643-0.379,1.21-0.682,1.775c-0.302,0.492-0.755,0.943-1.322,1.322c-0.301,0.188-0.792,0.377-1.357,0.49     c-0.567,0.113-1.209,0.188-1.926,0.188h-3.325V16.611h3.325c0.717,0,1.358,0.038,1.926,0.188     c0.604,0.114,1.057,0.267,1.357,0.492c0.567,0.339,1.021,0.755,1.322,1.319c0.303,0.531,0.566,1.098,0.682,1.738     c0.188,0.605,0.227,1.247,0.227,1.926C66.974,22.917,66.897,23.56,66.748,24.163z"/>
		</g>
		<g>
			<path fill="#CC1417" d="M86.648,16.611l0.715-3.359H72.826v18.049h15.218l-1.096-3.361H76.527v-4.228h8.723v-3.4h-8.723v-3.7     H86.648z"/>
		</g>
		<g>
			<path fill="#CC1417" d="M128.939,31.301V13.252h-3.663v18.049H128.939z"/>
		</g>
		<g>
			<path fill="#CC1417" d="M164.622,31.301l-1.057-3.361h-8.723V13.252h-3.663v18.049H164.622z"/>
		</g>
		<g>
			<path fill="#CC1417" d="M106.734,31.301V13.252h-3.662v11.592l-9.062-11.592h-4.004v18.049h3.664V18.574l9.705,12.727H106.734z"/>
		</g>
		<g>
			<path fill="#CC1417" d="M15.166,15.933c-0.567-0.943-1.437-1.662-2.569-2.116c-0.339-0.149-0.718-0.264-1.171-0.339     c-0.414-0.113-0.943-0.15-1.547-0.189c-0.565-0.036-1.321-0.036-2.266-0.036h-7.4v18.049h3.699v-6.004h3.701     c0.944,0,1.7,0,2.266-0.036c0.604-0.041,1.133-0.116,1.547-0.229c0.453-0.075,0.832-0.188,1.171-0.303     c1.133-0.491,2.002-1.17,2.569-2.076c0.604-0.942,0.906-2.078,0.906-3.399S15.77,16.837,15.166,15.933z M12.371,19.292     c0,0.53-0.113,0.982-0.301,1.399c-0.229,0.376-0.568,0.716-1.059,0.905c-0.189,0.075-0.378,0.114-0.566,0.188     c-0.226,0.037-0.529,0.113-0.906,0.113c-0.377,0.038-0.869,0.075-1.512,0.075H3.912v-5.362h4.115c0.643,0,1.135,0,1.512,0     c0.377,0.075,0.681,0.075,0.906,0.151c0.188,0.037,0.377,0.114,0.566,0.189c0.49,0.226,0.83,0.527,1.059,0.944     C12.257,18.312,12.371,18.803,12.371,19.292z"/>
		</g>
		<g>
			<path fill="#CC1417" d="M28.986,13.439c-0.605-0.151-1.398-0.188-2.379-0.188h-8.648v18.049h3.701v-6.382h2.189     c0.492,0,0.906,0,1.209,0.075c0.378,0.038,0.717,0.114,0.981,0.226c0.792,0.342,1.511,0.983,2.114,1.965     c0.68,0.942,1.285,2.341,1.889,4.116h4.267c-0.339-1.095-0.755-2.076-1.17-3.058c-0.453-0.945-0.944-1.812-1.474-2.568     c-0.489-0.756-1.057-1.322-1.698-1.812v-0.076c1.133-0.302,1.964-0.83,2.642-1.661c0.645-0.795,0.945-1.927,0.982-3.286     c0-1.019-0.227-1.962-0.754-2.868c-0.529-0.869-1.285-1.549-2.305-2.039C30.119,13.704,29.589,13.553,28.986,13.439z      M29.892,19.065c0,0.452-0.113,0.869-0.303,1.246c-0.227,0.38-0.566,0.719-0.981,0.907c-0.188,0.111-0.454,0.188-0.756,0.226     c-0.339,0.075-0.754,0.075-1.321,0.075H21.66v-4.908h4.871c0.567,0,0.982,0,1.321,0.075c0.302,0.038,0.567,0.113,0.756,0.228     c0.415,0.188,0.755,0.527,0.981,0.906C29.779,18.159,29.892,18.574,29.892,19.065z"/>
		</g>
		<g>
			<path fill="#CC1417" d="M117.685,16.611h5.325l1.095-3.359H108.17v3.359h5.853v14.689h3.662V16.611z"/>
		</g>
		<g>
			<path fill="#CC1417" d="M51.566,24.163V13.252h-3.699v10.911c0,0.566,0,1.02-0.076,1.361c-0.076,0.339-0.152,0.602-0.266,0.867     c-0.34,0.793-0.867,1.321-1.585,1.661c-0.717,0.378-1.474,0.566-2.38,0.566c-0.867,0-1.661-0.188-2.378-0.566     c-0.68-0.34-1.208-0.868-1.586-1.661c-0.075-0.266-0.188-0.528-0.226-0.867c-0.076-0.342-0.076-0.795-0.076-1.361V13.252h-3.701     v10.911c0,0.831,0.038,1.512,0.113,1.963c0.076,0.53,0.189,0.944,0.302,1.248c0.378,1.02,0.907,1.812,1.662,2.453     c0.755,0.681,1.624,1.132,2.604,1.474c1.02,0.339,2.115,0.49,3.285,0.49c1.209,0,2.304-0.151,3.286-0.49     c1.021-0.342,1.927-0.793,2.643-1.474c0.718-0.641,1.285-1.434,1.624-2.453c0.15-0.304,0.227-0.718,0.34-1.248     C51.49,25.675,51.528,24.994,51.566,24.163z"/>
		</g>
	</g>
</g>
</svg>